<svg width="237" height="19" viewBox="0 0 237 19" fill="none" xmlns="http://www.w3.org/2000/svg">
<path d="M32.6308 18.5111C29.422 18.5111 26.2118 18.4909 23.003 18.5218C21.8752 18.5325 21.1623 18.1096 20.6736 17.0624C19.6465 14.8672 18.4878 12.7325 17.4527 10.5414C17.0821 9.75593 16.5652 9.53709 15.7516 9.5438C12.4072 9.572 9.06138 9.5089 5.7183 9.57066C4.59857 9.59079 3.97157 9.16652 3.51374 8.18777C2.67327 6.38868 1.73882 4.63524 0.86747 2.84957C0.127694 1.33377 0.658023 0.282516 2.32822 0.240895C5.62566 0.157654 8.92981 0.142884 12.2232 0.273117C12.8516 0.298626 13.6746 0.994094 14.0196 1.60229C15.1555 3.59875 16.149 5.67979 17.121 7.76351C17.5802 8.74764 18.1938 9.13968 19.3108 9.13431C28.3049 9.09 37.3004 9.09134 46.2958 9.12222C47.1914 9.12491 47.6881 8.87115 48.0748 8.04814C49.071 5.92548 50.2068 3.86727 51.191 1.74059C51.6757 0.694697 52.4007 0.216728 53.5016 0.215386C56.6205 0.2127 59.7407 0.158995 62.8569 0.235524C64.7244 0.281172 65.24 1.27067 64.4183 2.9543C63.5872 4.65672 62.7119 6.339 61.9076 8.05351C61.4122 9.11014 60.7181 9.60691 59.4856 9.57871C56.3237 9.50487 53.1579 9.58811 49.9947 9.53709C48.8629 9.51964 48.1567 9.86871 47.6653 10.9468C46.7322 12.9983 45.6031 14.9625 44.6753 17.0167C44.1691 18.1378 43.4522 18.5433 42.2586 18.5231C39.0498 18.4708 35.841 18.5057 32.6308 18.5057V18.5111Z" fill="white"/>
<path d="M86.4795 18.7011V12.9494L79.4805 0H84.9771L88.6894 8.86924H88.8599L92.5722 0H98.0124L91.0698 12.893V18.7011H86.4795Z" fill="white"/>
<path d="M96.084 18.7011L102.43 0H109.118L115.464 18.7011H110.478L106.002 3.56999H105.548L101.072 18.7011H96.0853H96.084ZM99.8527 15.1875V12.1277H112.376V15.1875H99.8527Z" fill="white"/>
<path d="M117.816 18.7011V0H122.379V18.7011H117.816ZM118.638 18.7011V14.8761H130.001V18.7011H118.638Z" fill="white"/>
<path d="M132.24 18.7011V0H136.802V18.7011H132.24ZM133.062 18.7011V14.8761H144.424V18.7011H133.062Z" fill="white"/>
<path d="M145.64 18.701L151.987 -9.15527e-05H158.674L165.021 18.701H160.035L155.558 3.5699H155.104L150.628 18.701H145.642H145.64ZM149.409 15.1874V12.1277H161.933V15.1874H149.409Z" fill="white"/>
<path d="M173.693 18.7011V0H181.655C182.694 0 183.638 0.0805574 184.488 0.240327C185.338 0.40144 186.088 0.636395 186.741 0.949222C187.393 1.26205 187.945 1.63932 188.399 2.08238C188.853 2.52678 189.192 3.03698 189.419 3.61295C189.646 4.18893 189.759 4.82667 189.759 5.52616C189.759 6.18807 189.654 6.78284 189.447 7.31183C189.239 7.84081 188.924 8.30401 188.498 8.70007C188.073 9.09614 187.54 9.41837 186.898 9.66406C186.255 9.90976 185.51 10.0897 184.66 10.2024V10.6281C185.737 10.7408 186.573 10.9825 187.168 11.3504C187.763 11.7182 188.22 12.2056 188.541 12.8098C188.862 13.414 189.145 14.1417 189.391 14.9915L190.468 18.7038H185.395L184.574 15.2748C184.403 14.5189 184.172 13.9335 183.88 13.5187C183.587 13.1038 183.214 12.8152 182.76 12.654C182.306 12.4943 181.74 12.4137 181.06 12.4137H178.256V18.7038H173.693V18.7011ZM178.256 9.03841H181.344C182.495 9.03841 183.392 8.81151 184.035 8.35771C184.677 7.90391 184.999 7.19636 184.999 6.23237C184.999 5.26838 184.707 4.58902 184.121 4.13522C183.536 3.68142 182.649 3.45587 181.458 3.45587H178.256V9.03841Z" fill="white"/>
<path d="M193.188 18.701V-9.15527e-05H197.834V18.701H193.188Z" fill="white"/>
<path d="M201.773 18.701V-9.15527e-05H206.336V18.701H201.773ZM203.899 18.701V15.0169H209.311C210.292 15.0169 211.114 14.8088 211.776 14.394C212.436 13.9791 212.933 13.3548 213.263 12.5237C213.594 11.6927 213.759 10.6535 213.759 9.40754C213.759 8.40596 213.655 7.54669 213.447 6.82839C213.239 6.1101 212.933 5.5207 212.526 5.0575C212.119 4.5943 211.6 4.2506 210.968 4.0237C210.334 3.7968 209.593 3.68402 208.743 3.68402H203.897V-9.15527e-05H208.572C210.896 -9.15527e-05 212.795 0.367784 214.268 1.10487C215.74 1.84196 216.817 2.89457 217.498 4.26402C218.179 5.63348 218.518 7.2728 218.518 9.18064C218.518 10.6535 218.344 11.9289 217.995 13.0057C217.644 14.0825 217.168 14.9847 216.564 15.7111C215.959 16.4388 215.264 17.0241 214.481 17.4672C213.697 17.9116 212.875 18.2284 212.016 18.4164C211.157 18.6057 210.302 18.6997 209.452 18.6997H203.899V18.701Z" fill="white"/>
<path d="M221.693 18.7011V0H226.284V18.7011H221.693ZM225.008 3.65591V0H236.455V3.65591H225.008ZM225.008 10.9382V7.62331H235.095V10.9382H225.008ZM225.008 18.7025V15.0184H236.541V18.7025H225.008Z" fill="white"/>
</svg>
