<svg width="59" height="52" viewBox="0 0 59 52" fill="none" xmlns="http://www.w3.org/2000/svg">
<path d="M49.8382 9.36883C44.3608 3.89157 37.0782 0.875 29.332 0.875C21.5859 0.875 14.3033 3.89157 8.82597 9.36883C3.3486 14.8463 0.332031 22.1287 0.332031 29.875C0.332031 30.1159 0.427714 30.3469 0.59803 30.5172C0.768346 30.6875 0.999344 30.7832 1.24021 30.7832C1.48107 30.7832 1.71207 30.6875 1.88238 30.5172C2.0527 30.3469 2.14838 30.1159 2.14838 29.875C2.14838 17.0223 12.6047 6.56602 25.4574 6.56602C29.9679 6.56602 34.3436 7.85607 38.1116 10.2966C38.3137 10.4275 38.5596 10.4728 38.7952 10.4224C39.0307 10.372 39.2366 10.2302 39.3675 10.028C39.4984 9.82584 39.5437 9.57995 39.4933 9.34441C39.443 9.10887 39.3011 8.903 39.0989 8.77206C35.0362 6.14065 30.3192 4.74967 25.4574 4.74967C21.1034 4.74967 17.005 5.86266 13.4309 7.81948C18.0303 4.48856 23.5428 2.69124 29.332 2.69124C36.5931 2.69124 43.4196 5.51885 48.5539 10.6531C53.4735 15.5728 56.2753 22.0462 56.5011 28.9668H50.5664C50.4043 24.4276 49.0279 20.0438 46.5611 16.2349C46.4302 16.0328 46.2243 15.8909 45.9887 15.8405C45.7532 15.7901 45.5073 15.8354 45.3051 15.9663C45.205 16.0311 45.1187 16.1151 45.051 16.2133C44.9833 16.3115 44.9356 16.422 44.9107 16.5387C44.8857 16.6553 44.884 16.7757 44.9056 16.893C44.9272 17.0103 44.9717 17.1222 45.0365 17.2223C47.4765 20.9898 48.7662 25.3649 48.7662 29.875C48.7662 30.1159 48.8619 30.3469 49.0322 30.5172C49.2025 30.6875 49.4335 30.7832 49.6744 30.7832H57.4239C57.6647 30.7832 57.8957 30.6875 58.066 30.5172C58.2364 30.3469 58.332 30.1159 58.332 29.875C58.332 22.1287 55.3156 14.8462 49.8382 9.36883Z" fill="white" fill-opacity="0.66"/>
<path d="M44.5537 13.5461C43.7043 12.5541 42.7795 11.6292 41.7875 10.7797C41.6045 10.6231 41.3668 10.5456 41.1266 10.5643C40.8865 10.5829 40.6636 10.6962 40.507 10.8792C40.3504 11.0622 40.273 11.2998 40.2917 11.5399C40.3103 11.78 40.4236 12.0028 40.6065 12.1595C41.5272 12.9479 42.3855 13.8063 43.1738 14.7271C43.259 14.8269 43.3649 14.907 43.4841 14.9618C43.6033 15.0167 43.733 15.045 43.8643 15.0448C44.0378 15.0446 44.2077 14.9947 44.3537 14.901C44.4998 14.8073 44.616 14.6737 44.6885 14.5161C44.761 14.3584 44.7869 14.1833 44.763 14.0114C44.7391 13.8395 44.6665 13.678 44.5537 13.5461Z" fill="white" fill-opacity="0.66"/>
<path d="M25.4572 8.62451C13.7396 8.62451 4.20667 18.1575 4.20667 29.8751C4.20667 41.5926 13.7396 51.1256 25.4572 51.1256C37.1748 51.1256 46.7077 41.5926 46.7077 29.8751C46.7077 18.1575 37.1748 8.62451 25.4572 8.62451ZM25.4572 49.3092C14.7411 49.3092 6.02302 40.5911 6.02302 29.8751C6.02302 19.159 14.7411 10.4409 25.4572 10.4409C36.1733 10.4409 44.8914 19.159 44.8914 29.8751C44.8914 40.5911 36.1734 49.3092 25.4572 49.3092Z" fill="white" fill-opacity="0.66"/>
<path d="M33.6424 14.544C31.1416 13.2062 28.3113 12.499 25.4573 12.499C15.8763 12.499 8.08154 20.2938 8.08154 29.8748C8.08154 33.8332 9.44828 37.7064 11.9296 40.7807C12.0147 40.8863 12.1224 40.9715 12.2448 41.03C12.3671 41.0884 12.5011 41.1187 12.6367 41.1185C12.8441 41.1187 13.0453 41.0475 13.2065 40.9169C13.2993 40.842 13.3764 40.7495 13.4335 40.6448C13.4906 40.5401 13.5265 40.4252 13.5391 40.3066C13.5518 40.188 13.541 40.0681 13.5073 39.9537C13.4736 39.8393 13.4177 39.7326 13.3428 39.6399C11.1212 36.8875 9.89778 33.4194 9.89778 29.8747C9.89778 21.2952 16.8777 14.3151 25.4573 14.3151C28.0134 14.3151 30.5476 14.9481 32.7857 16.1453C32.8908 16.2016 33.0061 16.2366 33.1247 16.2483C33.2434 16.2601 33.3633 16.2483 33.4774 16.2137C33.5915 16.1791 33.6978 16.1224 33.79 16.0467C33.8822 15.9711 33.9586 15.878 34.0148 15.7729C34.0711 15.6677 34.106 15.5525 34.1178 15.4339C34.1295 15.3152 34.1178 15.1954 34.0832 15.0813C34.0486 14.9672 33.9919 14.861 33.9163 14.7688C33.8406 14.6766 33.7476 14.6002 33.6424 14.544ZM38.7062 18.6321C38.093 17.9105 37.4223 17.2397 36.7007 16.6264C36.6098 16.5492 36.5046 16.4906 36.3911 16.4541C36.2775 16.4175 36.1579 16.4037 36.0391 16.4134C35.9202 16.4231 35.8044 16.4561 35.6983 16.5105C35.5922 16.5649 35.4978 16.6397 35.4206 16.7306C35.3434 16.8215 35.2848 16.9267 35.2483 17.0403C35.2117 17.1538 35.1979 17.2734 35.2075 17.3922C35.2172 17.5111 35.2502 17.6269 35.3046 17.733C35.359 17.8392 35.4338 17.9335 35.5247 18.0107C36.1713 18.5602 36.7723 19.1611 37.3217 19.8077C37.4069 19.9083 37.5131 19.989 37.6327 20.0443C37.7523 20.0996 37.8826 20.1282 38.0144 20.1279C38.2297 20.1282 38.438 20.0516 38.6019 19.9119C38.7854 19.756 38.8995 19.5336 38.9191 19.2936C38.9387 19.0536 38.8621 18.8156 38.7062 18.6321Z" fill="white" fill-opacity="0.66"/>
<path d="M34.8176 20.5146C34.6691 20.3661 34.4739 20.2737 34.2649 20.253C34.056 20.2323 33.8464 20.2846 33.6717 20.4011L25.1637 26.0731C23.1973 26.2236 21.6431 27.8706 21.6431 29.8748C21.6431 31.978 23.3542 33.689 25.4572 33.689C27.4615 33.689 29.1084 32.1347 29.259 30.1683L34.931 21.6603C35.0474 21.4857 35.0998 21.2761 35.0791 21.0672C35.0584 20.8583 34.966 20.663 34.8176 20.5146ZM25.4572 31.8727C24.3556 31.8727 23.4593 30.9764 23.4593 29.8748C23.4593 28.7731 24.3556 27.8768 25.4572 27.8768C26.5589 27.8768 27.4552 28.7731 27.4552 29.8748C27.4552 30.9764 26.5589 31.8727 25.4572 31.8727ZM28.6552 27.7999C28.3631 27.3515 27.9806 26.969 27.5322 26.677L30.9011 24.4311L28.6552 27.7999Z" fill="white" fill-opacity="0.66"/>
<path d="M40.7914 21.6961C40.6761 21.4868 40.4831 21.3314 40.2541 21.2635C40.0251 21.1956 39.7785 21.2207 39.5679 21.3333C39.3572 21.4459 39.1994 21.6369 39.1285 21.8651C39.0577 22.0932 39.0797 22.3401 39.1896 22.5521C40.3849 24.7889 41.0168 27.321 41.0168 29.8749C41.0168 38.4543 34.0369 45.4344 25.4573 45.4344C21.8909 45.4344 18.5359 44.2607 15.7554 42.0401C15.6623 41.9657 15.5553 41.9103 15.4408 41.8772C15.3262 41.8441 15.2062 41.8339 15.0877 41.8472C14.9692 41.8605 14.8544 41.8969 14.75 41.9545C14.6456 42.0122 14.5535 42.0898 14.4791 42.183C14.4047 42.2762 14.3493 42.3831 14.3162 42.4977C14.2831 42.6122 14.2729 42.7322 14.2862 42.8507C14.2994 42.9693 14.3359 43.084 14.3935 43.1884C14.4511 43.2928 14.5288 43.3849 14.6219 43.4593C17.7278 45.9396 21.4746 47.2506 25.4573 47.2506C35.0383 47.2506 42.8331 39.4558 42.8331 29.8749C42.8331 27.0235 42.1271 24.1953 40.7914 21.6961Z" fill="white" fill-opacity="0.66"/>
</svg>
