<svg width="59" height="38" viewBox="0 0 59 38" fill="none" xmlns="http://www.w3.org/2000/svg">
<path d="M40.7822 12.9536H17.8817C17.6383 12.9536 17.4049 13.0503 17.2328 13.2224C17.0607 13.3945 16.964 13.628 16.964 13.8714C16.964 14.1148 17.0607 14.3482 17.2328 14.5203C17.4049 14.6924 17.6383 14.7891 17.8817 14.7891H40.7823C40.9028 14.7891 41.0222 14.7654 41.1335 14.7192C41.2449 14.6731 41.346 14.6055 41.4313 14.5203C41.5165 14.4351 41.5841 14.3339 41.6302 14.2225C41.6763 14.1112 41.7 13.9918 41.7 13.8713C41.7 13.7508 41.6763 13.6314 41.6301 13.5201C41.584 13.4088 41.5164 13.3076 41.4312 13.2224C41.3459 13.1372 41.2448 13.0696 41.1334 13.0234C41.0221 12.9773 40.9027 12.9536 40.7822 12.9536ZM8.31454 17.1141H4.92276C4.67936 17.1141 4.44592 17.2108 4.27381 17.3829C4.1017 17.555 4.005 17.7885 4.005 18.0319C4.005 18.2753 4.1017 18.5087 4.27381 18.6808C4.44592 18.8529 4.67936 18.9496 4.92276 18.9496H8.31454C9.99061 18.9496 11.404 20.0965 11.8112 21.6466H5.15783C4.91443 21.6466 4.68099 21.7433 4.50888 21.9154C4.33676 22.0875 4.24007 22.321 4.24007 22.5644C4.24007 22.8078 4.33676 23.0412 4.50888 23.2133C4.68099 23.3854 4.91443 23.4821 5.15783 23.4821H12.8468C13.0902 23.4821 13.3236 23.3854 13.4957 23.2133C13.6679 23.0412 13.7645 22.8078 13.7645 22.5644C13.7647 19.559 11.3198 17.1141 8.31454 17.1141ZM50.3494 18.9496H53.7412C53.9846 18.9496 54.218 18.8529 54.3901 18.6808C54.5622 18.5087 54.6589 18.2753 54.6589 18.0319C54.6589 17.7885 54.5622 17.555 54.3901 17.3829C54.218 17.2108 53.9846 17.1141 53.7412 17.1141H50.3494C47.3442 17.1141 44.8993 19.559 44.8993 22.5644C44.8993 22.8078 44.9959 23.0412 45.1681 23.2133C45.3402 23.3854 45.5736 23.4821 45.817 23.4821H53.506C53.7494 23.4821 53.9828 23.3854 54.1549 23.2133C54.327 23.0412 54.4237 22.8078 54.4237 22.5644C54.4237 22.321 54.327 22.0875 54.1549 21.9154C53.9828 21.7433 53.7494 21.6466 53.506 21.6466H46.8527C47.26 20.0965 48.6733 18.9496 50.3494 18.9496Z" fill="white" fill-opacity="0.66"/>
<path d="M56.4591 13.0805C55.1726 11.7361 53.4257 10.9956 51.5399 10.9956C51.4573 10.9956 51.3751 11.0068 51.2956 11.0288L48.3461 11.8436L44.0012 3.49646C43.2233 2.00211 41.2943 0.831543 39.6098 0.831543H19.054C17.3694 0.831543 15.4405 2.00211 14.6626 3.49646L10.3177 11.8436L7.36831 11.0288C7.28872 11.0068 7.20652 10.9956 7.12395 10.9956C5.23814 10.9956 3.4911 11.7361 2.20477 13.0805C0.918444 14.425 0.255701 16.203 0.339034 18.0925L1.00508 31.3717C1.01688 31.6068 1.11861 31.8285 1.28922 31.9907C1.45983 32.153 1.68628 32.2435 1.92173 32.2435H2.22765V36.2511C2.22765 36.4945 2.32435 36.7279 2.49646 36.9C2.66857 37.0721 2.90201 37.1688 3.14541 37.1688H12.8016C13.045 37.1688 13.2784 37.0721 13.4505 36.9C13.6226 36.7279 13.7193 36.4945 13.7193 36.2511V34.9968C13.7193 34.7534 13.6226 34.52 13.4505 34.3478C13.2784 34.1757 13.045 34.079 12.8016 34.079C12.5581 34.079 12.3247 34.1757 12.1526 34.3478C11.9805 34.52 11.8838 34.7534 11.8838 34.9968V35.3333H4.06304V32.2435H54.6008V35.3333H46.7802V34.9968C46.7802 34.7534 46.6835 34.52 46.5114 34.3478C46.3393 34.1757 46.1058 34.079 45.8624 34.079C45.619 34.079 45.3856 34.1757 45.2135 34.3478C45.0414 34.52 44.9447 34.7534 44.9447 34.9968V36.2511C44.9447 36.4945 45.0414 36.7279 45.2135 36.9C45.3856 37.0721 45.619 37.1688 45.8624 37.1688H55.5186C55.762 37.1688 55.9954 37.0721 56.1675 36.9C56.3396 36.7279 56.4363 36.4945 56.4363 36.2511V32.2435H56.7423C56.9777 32.2435 57.2042 32.153 57.3748 31.9908C57.5454 31.8285 57.6471 31.6068 57.6589 31.3717L58.3251 18.0871C58.4083 16.203 57.7455 14.425 56.4591 13.0805ZM56.4916 18.0006L55.8694 30.4079H2.79458L2.17259 18.0061C2.11177 16.6272 2.59414 15.3287 3.53111 14.3496C4.44079 13.3988 5.67034 12.8628 7.00451 12.8327L10.5353 13.8082L10.542 13.8101L13.9664 14.7561C14.2003 14.8187 14.4494 14.7864 14.6596 14.6661C14.8698 14.5458 15.0239 14.3473 15.0883 14.1139C15.1528 13.8805 15.1224 13.6311 15.0038 13.42C14.8852 13.2089 14.688 13.0532 14.4551 12.9869L12.1269 12.3438L16.2909 4.34422C16.7559 3.45094 18.0471 2.6673 19.0542 2.6673H39.61C40.6169 2.6673 41.9083 3.45094 42.3733 4.34422L46.5372 12.3438L44.209 12.9869C44.092 13.0182 43.9823 13.0724 43.8864 13.1463C43.7904 13.2203 43.71 13.3124 43.6498 13.4176C43.5897 13.5227 43.5509 13.6387 43.5358 13.7589C43.5207 13.8791 43.5295 14.0011 43.5617 14.1178C43.594 14.2346 43.649 14.3438 43.7237 14.4392C43.7984 14.5346 43.8912 14.6142 43.9968 14.6736C44.1024 14.7329 44.2187 14.7707 44.339 14.7849C44.4593 14.7991 44.5812 14.7893 44.6977 14.7561L51.6596 12.8327C52.9938 12.863 54.2233 13.3989 55.133 14.3496C56.0698 15.3287 56.5522 16.6272 56.4916 18.0006Z" fill="white" fill-opacity="0.66"/>
<path d="M51.5399 9.16022H54.7371C54.9805 9.16022 55.2139 9.06353 55.386 8.89141C55.5581 8.7193 55.6548 8.48587 55.6548 8.24246C55.6548 7.99906 55.5581 7.76562 55.386 7.59351C55.2139 7.4214 54.9805 7.32471 54.7371 7.32471H51.5399C51.2965 7.32471 51.063 7.4214 50.8909 7.59351C50.7188 7.76562 50.6221 7.99906 50.6221 8.24246C50.6221 8.48587 50.7188 8.7193 50.8909 8.89141C51.063 9.06353 51.2965 9.16022 51.5399 9.16022ZM3.92667 9.16022H7.12389C7.36729 9.16022 7.60073 9.06353 7.77284 8.89141C7.94495 8.7193 8.04164 8.48587 8.04164 8.24246C8.04164 7.99906 7.94495 7.76562 7.77284 7.59351C7.60073 7.4214 7.36729 7.32471 7.12389 7.32471H3.92667C3.68326 7.32471 3.44983 7.4214 3.27772 7.59351C3.1056 7.76562 3.00891 7.99906 3.00891 8.24246C3.00891 8.48587 3.1056 8.7193 3.27772 8.89141C3.44983 9.06353 3.68326 9.16022 3.92667 9.16022ZM39.5111 24.284H19.1527C18.9093 24.284 18.6759 24.3807 18.5038 24.5528C18.3317 24.7249 18.235 24.9583 18.235 25.2017V27.6546C18.235 27.898 18.3317 28.1314 18.5038 28.3036C18.6759 28.4757 18.9093 28.5724 19.1527 28.5724C19.3961 28.5724 19.6296 28.4757 19.8017 28.3036C19.9738 28.1314 20.0705 27.898 20.0705 27.6546V26.1195H38.5934V27.6546C38.5934 27.898 38.6901 28.1314 38.8622 28.3036C39.0343 28.4757 39.2677 28.5724 39.5111 28.5724C39.7545 28.5724 39.988 28.4757 40.1601 28.3036C40.3322 28.1314 40.4289 27.898 40.4289 27.6546V25.2017C40.4289 24.9583 40.3322 24.7249 40.1601 24.5528C39.988 24.3807 39.7545 24.284 39.5111 24.284ZM34.4215 19.6838C34.6649 19.6838 34.8983 19.5871 35.0705 19.415C35.2426 19.2429 35.3393 19.0095 35.3393 18.7661C35.3393 18.5227 35.2426 18.2892 35.0705 18.1171C34.8983 17.945 34.6649 17.8483 34.4215 17.8483H24.2422C23.9988 17.8483 23.7654 17.945 23.5933 18.1171C23.4212 18.2892 23.3245 18.5227 23.3245 18.7661C23.3245 19.0095 23.4212 19.2429 23.5933 19.415C23.7654 19.5871 23.9988 19.6838 24.2422 19.6838H34.4215Z" fill="white" fill-opacity="0.66"/>
</svg>
