<svg width="59" height="58" viewBox="0 0 59 58" fill="none" xmlns="http://www.w3.org/2000/svg">
<g clip-path="url(#clip0_77_1191)">
<path d="M26.0191 15.2743L19.8068 9.06189C18.6572 7.91231 16.7866 7.91231 15.637 9.06189L13.1787 11.5202C12.0291 12.6698 12.0291 14.5404 13.1787 15.69L19.391 21.9023C19.9659 22.4772 20.7208 22.7644 21.4759 22.7644C22.2308 22.7644 22.9861 22.4769 23.5608 21.9023L26.0191 19.444C27.1687 18.2945 27.1687 16.4238 26.0191 15.2743ZM24.8517 18.2767L22.3934 20.7349C22.2732 20.8557 22.1302 20.9516 21.9727 21.0168C21.8152 21.082 21.6464 21.1154 21.4759 21.115C21.1293 21.115 20.8035 20.9799 20.5583 20.7349L14.3461 14.5226C13.8402 14.0167 13.8402 13.1935 14.3461 12.6876L16.8044 10.2294C16.9248 10.1088 17.0679 10.0132 17.2253 9.94809C17.3828 9.88296 17.5516 9.84959 17.722 9.84988C18.0542 9.84988 18.3865 9.97642 18.6395 10.2293L24.8517 16.4416C24.9726 16.5618 25.0684 16.7048 25.1336 16.8623C25.1988 17.0198 25.2322 17.1886 25.2318 17.3591C25.2318 17.7057 25.0967 18.0315 24.8517 18.2767ZM18.4909 22.8024L12.2786 16.59C11.129 15.4404 9.25849 15.4404 8.1089 16.59L5.65058 19.0484C4.501 20.1979 4.501 22.0686 5.65058 23.2181L11.8628 29.4305C12.4376 30.0053 13.1926 30.2927 13.9477 30.2927C14.7027 30.2927 15.4578 30.0053 16.0326 29.4305L18.4909 26.9722C19.6405 25.8226 19.6405 23.952 18.4909 22.8024ZM17.3236 25.8048L14.8652 28.263C14.3593 28.7689 13.5361 28.7688 13.0302 28.263L6.81795 22.0507C6.6971 21.9304 6.60128 21.7875 6.53604 21.63C6.47081 21.4725 6.43745 21.3036 6.43789 21.1332C6.43789 20.7867 6.5728 20.4608 6.81795 20.2157L9.27627 17.7574C9.52923 17.5044 9.86149 17.378 10.1937 17.378C10.526 17.378 10.8583 17.5044 11.1112 17.7574L17.3236 23.9698C17.8295 24.4757 17.8295 25.2989 17.3236 25.8048Z" fill="white" fill-opacity="0.66"/>
<path d="M56.6382 19.1637L48.8202 11.3457C48.2393 10.7651 47.5415 10.3148 46.7731 10.0247C46.0048 9.73465 45.1835 9.61145 44.3638 9.66332C43.9825 9.68809 43.6047 9.75062 43.2357 9.85001C41.8964 8.8282 40.2768 7.89442 38.5036 7.13419C35.8672 6.00375 33.1861 5.38116 30.9536 5.38116H30.9527C30.6444 5.38116 30.3489 5.39407 30.0655 5.41797C29.4087 4.66114 28.4736 4.1525 27.4181 4.05236L19.8765 3.33654C17.9421 3.15291 16.0452 3.83554 14.6715 5.20931L6.78045 13.1004C6.7038 13.177 6.643 13.268 6.60151 13.3682C6.56003 13.4683 6.53868 13.5757 6.53868 13.6841C6.53868 13.7925 6.56003 13.8998 6.60151 14C6.643 14.1001 6.7038 14.1911 6.78045 14.2678C6.8571 14.3444 6.9481 14.4052 7.04825 14.4467C7.14839 14.4882 7.25573 14.5095 7.36413 14.5095C7.47253 14.5095 7.57987 14.4882 7.68002 14.4467C7.78017 14.4052 7.87117 14.3444 7.94782 14.2678L15.8389 6.37668C16.8633 5.35227 18.2781 4.84295 19.7205 4.98003L27.2621 5.69585C28.3856 5.80256 29.2785 6.69545 29.3852 7.81898L29.7894 12.0777L29.7664 12.0572C29.6394 11.9439 29.5147 11.828 29.3923 11.7098C29.3659 11.684 29.3396 11.6584 29.3135 11.6326C29.2349 11.5552 29.1575 11.4766 29.0812 11.3969C29.0017 11.3131 28.9237 11.2279 28.8473 11.1413C28.7899 11.0765 28.7334 11.0108 28.6779 10.9443C28.6657 10.9297 28.6542 10.9152 28.6422 10.9006C28.6 10.8492 28.5585 10.7972 28.5177 10.7447C28.501 10.7232 28.484 10.7015 28.4677 10.6801C28.4246 10.6235 28.3824 10.5663 28.3411 10.5084C28.3211 10.4802 28.3019 10.4523 28.2827 10.4243C28.2678 10.4027 28.2536 10.3813 28.2392 10.3599C28.7105 9.37807 28.5427 8.16381 27.73 7.35112C26.7014 6.32253 25.0276 6.32241 23.9988 7.35112C22.9701 8.37984 22.9701 10.0536 23.9988 11.0823C24.5131 11.5966 25.1888 11.8537 25.8643 11.8537C26.2823 11.8536 26.6943 11.7544 27.0665 11.5641C27.3029 11.8855 27.5756 12.2097 27.8851 12.5349C28.4845 13.165 29.2007 13.7787 30.006 14.3608L30.101 15.3606C30.1694 16.0706 30.0797 16.7869 29.8382 17.4581C29.5967 18.1293 29.2094 18.7386 28.7043 19.2422L15.3756 32.5709C15.0345 32.912 14.581 33.0998 14.0987 33.0998C13.6163 33.0998 13.1629 32.912 12.8218 32.5709L2.51007 22.2592C2.16898 21.9181 1.98116 21.4647 1.98116 20.9823C1.98116 20.5 2.16898 20.0465 2.51007 19.7054L4.13464 18.0808C4.28945 17.926 4.37641 17.7161 4.37641 17.4971C4.37641 17.2782 4.28945 17.0683 4.13464 16.9135C3.97984 16.7587 3.76988 16.6717 3.55096 16.6717C3.33203 16.6717 3.12208 16.7587 2.96727 16.9135L1.34282 18.5378C-0.00489679 19.8855 -0.00489679 22.0785 1.34282 23.4264L11.6545 33.7381C12.3073 34.3909 13.1754 34.7506 14.0988 34.7506C15.0221 34.7506 15.8902 34.391 16.5431 33.7381L29.8718 20.4093C31.1763 19.1047 31.8561 17.328 31.7642 15.4961C32.603 15.9807 33.47 16.4148 34.3606 16.7961C34.8672 17.0133 35.3809 17.2137 35.9008 17.3968L31.2612 23.3939C29.6748 25.4443 29.669 28.2764 31.1414 30.325L27.3317 34.1348C26.903 34.5635 26.7239 35.1962 26.8643 35.7861C26.8685 35.8041 26.868 35.8229 26.863 35.8406C26.858 35.8584 26.8485 35.8747 26.8355 35.8878L24.0863 38.637C23.9766 38.7467 23.8841 38.8723 23.812 39.0096L22.2641 41.958L19.4861 43.3941C19.1906 43.5477 18.9525 43.7925 18.8072 44.0921L17.7178 46.3512L14.4103 48.423C14.2393 48.5296 14.0942 48.6731 13.9856 48.8428C13.877 49.0126 13.8076 49.2044 13.7824 49.4043L13.302 53.1583C13.2748 53.3647 13.2957 53.5745 13.363 53.7715C13.4303 53.9685 13.5421 54.1474 13.6898 54.294C13.8155 54.4206 13.9651 54.5211 14.1298 54.5896C14.2945 54.6581 14.4712 54.6933 14.6496 54.6931C14.7079 54.6931 14.7667 54.6894 14.8257 54.6819L18.5798 54.2015C18.7797 54.1762 18.9714 54.1068 19.1411 53.9982C19.3109 53.8896 19.4543 53.7446 19.561 53.5737L21.6328 50.2662L23.8918 49.1767C24.1915 49.0313 24.4363 48.7932 24.5899 48.4976L26.0259 45.7199L28.9745 44.1719C29.1118 44.0998 29.2374 44.0074 29.347 43.8977L32.0961 41.1486C32.1091 41.1354 32.1253 41.1259 32.1432 41.1208C32.161 41.1158 32.1798 41.1154 32.1978 41.1198C32.7879 41.2601 33.4206 41.081 33.8491 40.6523L37.6586 36.8429C38.6614 37.5638 39.8516 37.9311 41.0466 37.931C42.2926 37.931 43.5433 37.5327 44.5899 36.7229L49.0053 33.3069C49.1763 33.1722 49.2871 32.9754 49.3137 32.7594C49.3403 32.5434 49.2805 32.3256 49.1473 32.1534C49.0142 31.9813 48.8184 31.8687 48.6026 31.8401C48.3868 31.8116 48.1685 31.8695 47.9952 32.0011L43.5798 35.4171C41.9589 36.671 39.6554 36.5445 38.1801 35.1352C38.1788 35.134 38.1778 35.1327 38.1767 35.1315L38.1435 35.1002C38.1327 35.0901 38.1219 35.0801 38.1114 35.0696L32.9145 29.8727C32.9042 29.8623 32.8944 29.8517 32.8844 29.8412L32.8519 29.8068L32.8492 29.8042C31.4397 28.3291 31.313 26.0252 32.567 24.4042L37.5841 17.9192C39.1149 18.3304 40.5913 18.5494 41.9106 18.5494H41.9115C42.3038 18.5494 42.6762 18.5296 43.0281 18.4911L49.6172 25.0803C50.0948 25.5578 50.7221 25.7966 51.3493 25.7966C51.9766 25.7966 52.6038 25.5578 53.0814 25.0803C54.0365 24.1252 54.0365 22.5713 53.0814 21.6162L46.3679 14.9027C45.9052 14.4401 45.2901 14.1853 44.6358 14.1853C43.9815 14.1853 43.3664 14.4401 42.9037 14.9027C42.6755 15.1296 42.4946 15.3996 42.3715 15.6969C42.2483 15.9942 42.1853 16.313 42.1862 16.6348C42.1862 16.7219 42.1914 16.8082 42.2003 16.8937C42.1055 16.8966 42.0095 16.8985 41.9113 16.8985H41.9105C40.923 16.8985 39.83 16.7594 38.6857 16.4952L41.4619 12.9067C41.821 12.4425 42.2749 12.0602 42.7933 11.7851C43.3116 11.51 43.8827 11.3484 44.4684 11.3111C45.0541 11.2738 45.641 11.3618 46.19 11.569C46.7391 11.7763 47.2377 12.0981 47.6527 12.5131L55.4707 20.3312C55.8856 20.7462 56.2074 21.2448 56.4147 21.7939C56.6219 22.3429 56.7099 22.9298 56.6728 23.5155C56.6355 24.1012 56.4739 24.6722 56.1988 25.1906C55.9237 25.709 55.5413 26.1629 55.0772 26.522L52.4097 28.5857C52.2388 28.7204 52.1279 28.9172 52.1013 29.1332C52.0747 29.3492 52.1345 29.567 52.2677 29.7392C52.4009 29.9113 52.5967 30.0239 52.8124 30.0524C53.0282 30.081 53.2465 30.0231 53.4199 29.8915L56.0873 27.8278C56.7368 27.3252 57.2719 26.69 57.6569 25.9645C58.0419 25.2391 58.2681 24.4399 58.3203 23.6203C58.3724 22.8006 58.2494 21.9792 57.9593 21.2108C57.6693 20.4424 57.2189 19.7445 56.6382 19.1637ZM25.8645 10.2039C25.7347 10.2042 25.6062 10.1788 25.4864 10.1292C25.3665 10.0796 25.2577 10.0067 25.1662 9.91469C24.9797 9.72811 24.877 9.48014 24.877 9.21642C24.877 8.9527 24.9797 8.70473 25.1662 8.51827C25.2577 8.4263 25.3665 8.35339 25.4864 8.30375C25.6062 8.25411 25.7347 8.22872 25.8645 8.22906C25.9055 8.22906 25.9459 8.23246 25.986 8.23733C25.8931 8.8273 25.9827 9.4636 26.2473 10.127C26.1261 10.1779 25.9959 10.204 25.8645 10.2039ZM32.2542 31.547L36.4368 35.7295L32.6816 39.4847C32.6685 39.4977 32.6523 39.5072 32.6345 39.5122C32.6167 39.5173 32.5979 39.5177 32.5799 39.5135C31.9902 39.3733 31.3574 39.5522 30.9286 39.981L28.1914 42.7182L25.227 44.2746C24.9475 44.4208 24.7199 44.6497 24.5754 44.9302L23.1405 47.7061L20.8862 48.7934C20.6249 48.9193 20.4047 49.1165 20.2509 49.3623L18.2344 52.5816L14.9869 52.9971L15.4025 49.7497L18.6216 47.7333C18.8674 47.5795 19.0647 47.3593 19.1906 47.098L20.2779 44.8436L23.0538 43.4086C23.3342 43.2642 23.5631 43.0367 23.7093 42.7573L25.2658 39.7925L28.0028 37.0555C28.4315 36.6269 28.6107 35.9941 28.4704 35.4042C28.466 35.3862 28.4664 35.3674 28.4714 35.3496C28.4765 35.3317 28.486 35.3155 28.4992 35.3025L32.2542 31.547ZM46.2257 17.0952L51.9139 22.7834C52.2253 23.0948 52.2253 23.6014 51.9139 23.9127C51.763 24.0636 51.5625 24.1466 51.3492 24.1466C51.1359 24.1466 50.9354 24.0636 50.7845 23.9127L44.8996 18.0278C45.4465 17.7924 45.8928 17.4801 46.2257 17.0952ZM44.0711 16.07C44.1451 15.9956 44.2331 15.9366 44.33 15.8964C44.4269 15.8563 44.5309 15.8357 44.6358 15.836C44.7771 15.836 44.9123 15.8732 45.0317 15.9416C44.7993 16.2505 44.3901 16.4942 43.8383 16.658C43.8381 16.6502 43.8372 16.6425 43.8372 16.6346C43.8372 16.4213 43.9202 16.2207 44.0711 16.07ZM40.1562 11.8962L36.969 16.0159C36.3056 15.7999 35.6523 15.5539 35.011 15.2788C33.7617 14.7431 32.6002 14.1191 31.5771 13.4417L31.0286 7.66276C31.0081 7.44994 30.9707 7.2391 30.9166 7.03224C30.9287 7.03224 30.9405 7.03178 30.9527 7.03178H30.9535C32.9672 7.03178 35.4176 7.60691 37.8529 8.65126C39.1918 9.22537 40.4304 9.90076 41.5054 10.6347C40.991 10.9802 40.5354 11.4061 40.1562 11.8962Z" fill="white" fill-opacity="0.66"/>
</g>
<defs>
<clipPath id="clip0_77_1191">
<rect width="58" height="58" fill="white" transform="translate(0.332031)"/>
</clipPath>
</defs>
</svg>
