<svg width="50" height="58" viewBox="0 0 50 58" fill="none" xmlns="http://www.w3.org/2000/svg">
<path d="M6.79364 49.1405V16.4148M49.134 46.675V52.8023C49.134 55.2032 47.1863 57.1497 44.7855 57.1497M6.79364 12.4493V2.68054C6.79364 1.6699 7.61393 0.849609 8.62457 0.849609H47.303C48.3137 0.849609 49.134 1.6699 49.134 2.68054V42.7095M25.6751 15.8818H30.2524M22.2422 15.8818H21.0979M33.6852 15.8818H34.8296" stroke="white" stroke-opacity="0.66" stroke-width="1.6995" stroke-miterlimit="10" stroke-linecap="round" stroke-linejoin="round"/>
<path d="M19.3814 12.4489L20.3026 6.92165C20.365 6.54759 20.558 6.20776 20.8473 5.96264C21.1367 5.71752 21.5036 5.583 21.8828 5.58301H34.0446C34.4238 5.583 34.7908 5.71752 35.0801 5.96264C35.3695 6.20776 35.5625 6.54759 35.6248 6.92165L36.546 12.4489M17.6649 19.3148V13.5932C17.6649 12.9612 18.1772 12.4489 18.8092 12.4489H37.1182C37.7502 12.4489 38.2625 12.9612 38.2625 13.5932V19.3148M39.4071 19.3153H29.6406M25.6751 19.3153H16.5204" stroke="white" stroke-opacity="0.66" stroke-width="1.6995" stroke-miterlimit="10" stroke-linecap="round" stroke-linejoin="round"/>
<path d="M17.3216 30.8046H26.0184M18.9237 34.2375H17.3216M26.0184 34.2375H22.5854M22.2422 22.7475H19.9536C19.3216 22.7475 18.8092 22.2351 18.8092 21.6031V19.3145H23.3864V21.6031C23.3864 22.2352 22.8741 22.7475 22.2422 22.7475ZM33.6852 22.7475H35.9739C36.6059 22.7475 37.1182 22.2351 37.1182 21.6031V19.3145H32.541V21.6031C32.541 22.2352 33.0532 22.7475 33.6852 22.7475Z" stroke="white" stroke-opacity="0.66" stroke-width="1.6995" stroke-miterlimit="10" stroke-linecap="round" stroke-linejoin="round"/>
<path d="M12.1722 34.2377C13.1202 34.2377 13.8887 33.4692 13.8887 32.5212C13.8887 31.5732 13.1202 30.8047 12.1722 30.8047C11.2243 30.8047 10.4557 31.5732 10.4557 32.5212C10.4557 33.4692 11.2243 34.2377 12.1722 34.2377Z" stroke="white" stroke-opacity="0.66" stroke-width="1.6995" stroke-miterlimit="10" stroke-linecap="round" stroke-linejoin="round"/>
<path d="M17.3216 38.8149H26.0184M18.9237 42.2479H17.3216M26.0184 42.2479H22.5854" stroke="white" stroke-opacity="0.66" stroke-width="1.6995" stroke-miterlimit="10" stroke-linecap="round" stroke-linejoin="round"/>
<path d="M12.1722 42.2479C13.1202 42.2479 13.8887 41.4794 13.8887 40.5314C13.8887 39.5834 13.1202 38.8149 12.1722 38.8149C11.2243 38.8149 10.4557 39.5834 10.4557 40.5314C10.4557 41.4794 11.2243 42.2479 12.1722 42.2479Z" stroke="white" stroke-opacity="0.66" stroke-width="1.6995" stroke-miterlimit="10" stroke-linecap="round" stroke-linejoin="round"/>
<path d="M5.87863 57.15C3.47711 57.15 1.53027 55.2032 1.53027 52.8017V50.2842C1.53027 49.6522 2.04262 49.1398 2.67461 49.1398H39.2925C39.9245 49.1398 40.4368 49.6522 40.4368 50.2842V52.8017C40.4368 55.2032 42.3836 57.15 44.7851 57.15H5.87863ZM41.3304 43.7726L37.9732 45.4511C37.8143 45.5306 37.6391 45.5719 37.4614 45.5719C37.2838 45.5719 37.1085 45.5306 36.9496 45.4511L33.5924 43.7726C32.348 43.1504 31.3015 42.194 30.57 41.0105C29.8386 39.827 29.4512 38.4632 29.4512 37.0719V31.0678C29.4512 30.6699 29.5808 30.2828 29.8204 29.9652C30.06 29.6476 30.3965 29.4166 30.7791 29.3073L36.8955 27.5598C37.2653 27.454 37.6574 27.454 38.0272 27.5598L44.1436 29.3073C44.5262 29.4166 44.8627 29.6476 45.1023 29.9652C45.3419 30.2828 45.4715 30.6699 45.4715 31.0678V37.0719C45.4716 38.4631 45.0842 39.8269 44.3527 41.0104C43.6213 42.1939 42.5748 43.1504 41.3304 43.7726Z" stroke="white" stroke-opacity="0.66" stroke-width="1.6995" stroke-miterlimit="10" stroke-linecap="round" stroke-linejoin="round"/>
<path d="M36.3338 36.254L35.4921 35.4123C34.8218 34.742 33.7349 34.742 33.0647 35.4123C32.3944 36.0825 32.3944 37.1694 33.0647 37.8397L35.12 39.8951C35.7903 40.5654 36.8772 40.5654 37.5475 39.8951L41.8581 35.5845C42.5284 34.9142 42.5284 33.8273 41.8581 33.157C41.1878 32.4867 40.101 32.4867 39.4307 33.157L36.3338 36.254Z" stroke="white" stroke-opacity="0.66" stroke-width="1.6995" stroke-miterlimit="10" stroke-linecap="round" stroke-linejoin="round"/>
</svg>
